<?xml version="1.0" encoding="UTF-8"?>
<!-- <!DOCTYPE svg PUBLIC "-//W3C//DTD SVG 1.1//EN" "http://www.w3.org/Graphics/SVG/1.1/DTD/svg11.dtd"> -->
<!-- Creator: CorelDRAW 2021 (64-Bit) -->
<svg xmlns="http://www.w3.org/2000/svg" xml:space="preserve" width="100" height="100" version="1.1" style="shape-rendering:geometricPrecision; text-rendering:geometricPrecision; image-rendering:optimizeQuality; fill-rule:evenodd; clip-rule:evenodd"
viewBox="500 500 2000 2000"
 xmlns:xlink="http://www.w3.org/1999/xlink"
 xmlns:xodm="http://www.corel.com/coreldraw/odm/2003">
 <defs>
  <style type="text/css">
   <![CDATA[
    .str0 {stroke:white;stroke-width:26.94;stroke-miterlimit:2.61313}
    .str2 {stroke:#389ABF;stroke-width:69.44;stroke-miterlimit:2.61313}
    .str1 {stroke:#389ABF;stroke-width:6.94;stroke-linecap:round;stroke-linejoin:round;stroke-miterlimit:2.61313}
    .fil5 {fill:none}
    .fil4 {fill:#389ABF}
    .fil1 {fill:white}
    .fil0 {fill:white}
    .fil2 {fill:#0359FC;fill-opacity:0.121569}
    .fil3 {fill:#389ABF;fill-opacity:0.121569}
   ]]>
  </style>
 </defs>
 <g id="Layer_x0020_1">
  <metadata id="CorelCorpID_0Corel-Layer"/>

  <g id="_2275729736496" >
   <g>
    <path class="fil1" d="M1533.6 998.37c295.6,0 535.23,239.63 535.23,535.24 0,295.6 -239.63,535.23 -535.23,535.23 -295.6,0 -535.24,-239.63 -535.24,-535.23 0,-295.61 239.63,-535.24 535.24,-535.24z"/>
    <path class="fil1" d="M1533.6 998.37c295.6,0 535.23,239.63 535.23,535.24 0,295.6 -239.63,535.23 -535.23,535.23 -295.6,0 -535.24,-239.63 -535.24,-535.23 0,-295.61 239.63,-535.24 535.24,-535.24z"/>
    <path class="fil1" d="M1533.6 886.9c357.17,0 646.7,289.54 646.7,646.71 0,357.17 -289.54,646.7 -646.7,646.7 -357.17,0 -646.7,-289.54 -646.7,-646.7 0,-357.17 289.54,-646.71 646.7,-646.71z"/>
    <path class="fil2" d="M1505.19 1642.13l0 234.91 0.02 1.74c3.48,-1.13 7.17,-1.74 11.01,-1.74l100.07 0c19.75,0 35.93,16.17 35.93,35.93l0 76.83 339.76 0c116.39,-116.94 188.34,-278.16 188.34,-456.19 0,-12.25 -0.37,-24.41 -1.04,-36.5l-33.41 -21.26 -189.24 -120.48 -72 -45.83 -151.91 96.7 -109.33 69.61 -110.25 70.17 -8.95 96.12 1.02 0 -0.01 -0.01z"/>
    <path class="fil2" d="M1884.62 1210.56l-261.24 166.31 -261.24 166.3 86.03 0 175.22 -111.54 261.24 -166.3 261.24 166.3 29.1 18.52c-2.69,-20.93 -6.39,-41.53 -11.04,-61.79l-18.06 -11.5 -261.24 -166.31z"/>
    <path class="fil2" d="M2093.95 1210.56l-14.11 0 0 103.68 66.02 42.02 11.89 7.57c-14.72,-54.25 -36.3,-105.68 -63.79,-153.27z"/>
    <path class="fil3" d="M1923.7 1694.12l-84.57 0c-16.7,0 -30.35,13.66 -30.35,30.35l0 177.37c0,16.7 13.65,30.35 30.35,30.35l84.57 0c16.7,0 30.35,-13.66 30.35,-30.35l0 -177.37c0,-16.69 -13.66,-30.35 -30.35,-30.35z"/>
    <path class="fil3" d="M1619.92 1642.13l0 234.91 0 0.18c-1.2,-0.12 -2.4,-0.18 -3.63,-0.18l-100.06 0c-19.76,0 -35.93,16.17 -35.93,35.93l0 76.83 -405.06 0c-116.17,-116.72 -188.05,-277.54 -188.33,-455.17l92.35 -58.79 189.23 -120.48 72 -45.84 151.91 96.7 109.35 69.61 110.26 70.19 8.95 96.11 -1.03 0 0 -0.02z"/>
    <path class="fil2" d="M1240.49 1210.56l261.26 166.31 261.24 166.28 -86.04 0 -175.19 -111.52 -261.26 -166.31 -261.23 166.31 -90.83 57.82c1.34,-19.94 3.59,-39.63 6.7,-59.03l84.14 -53.55 261.23 -166.31z"/>
    <path class="fil3" d="M973.25 1210.56l72.02 0 0 103.68 -66 42.02 -24.98 15.92 0 -126.22c5.97,-12.01 12.28,-23.82 18.96,-35.39z"/>
    <path class="fil3" d="M1201.42 1694.12l84.57 0c16.7,0 30.35,13.66 30.35,30.35l0 177.37c0,16.7 -13.66,30.35 -30.35,30.35l-84.57 0c-16.7,0 -30.35,-13.66 -30.35,-30.35l0 -177.37c0,-16.69 13.66,-30.35 30.35,-30.35z"/>
    <path class="fil4" d="M1183.62 2077.5c-0,-115.37 -0.06,-211.85 8.85,-327.3l109.35 -69.6 189.25 -120.47 71.99 -45.82 151.9 96.7 109.34 69.6 110.26 70.19 6.82 284.74c-111.26,90.5 -253.17,144.78 -407.77,144.78 -128.96,0 -249.1,-37.76 -349.98,-102.81zm332.59 -200.46l100.07 0c19.76,0 35.93,16.17 35.93,35.93l0 209.91c0,19.75 -16.17,35.91 -35.93,35.91l-100.07 0c-19.76,0 -35.93,-16.17 -35.93,-35.91l0 -209.91c0,-19.75 16.17,-35.93 35.93,-35.93z"/>
    <path class="fil5 str0" d="M1183.62 2077.5c-0,-115.36 -0.06,-211.85 8.84,-327.3l109.35 -69.61 189.25 -120.47 72 -45.83 151.9 96.69 109.34 69.6 110.25 70.19 6.82 284.74m-425.16 -158.48l100.07 0c19.76,0 35.93,16.17 35.93,35.93l0 209.91c0,19.76 -16.17,35.92 -35.93,35.92l-100.07 0c-19.76,0 -35.93,-16.17 -35.93,-35.92l0 -209.91c0,-19.75 16.17,-35.93 35.93,-35.93"/>
    <polygon class="fil4" points="1563.06,1415.32 1824.28,1581.63 2085.52,1747.92 1999.48,1747.92 1824.28,1636.39 1563.06,1470.09 1301.8,1636.39 1126.6,1747.92 1040.56,1747.92 1301.8,1581.63 "/>
    <polyline class="fil5 str1" points="1563.06,1415.32 1824.28,1581.63 2085.52,1747.92 1999.48,1747.92 1824.28,1636.39 1563.06,1470.09 1301.8,1636.39 1126.6,1747.92 1040.56,1747.92 1301.8,1581.63 1563.06,1415.32 "/>
    <polygon class="fil4" points="1276.82,1415.32 1367.81,1415.32 1367.81,1519 1301.8,1561.02 1276.82,1576.92 "/>
    <path class="fil4" d="M1563.56 969.06c71.76,0 129.93,58.17 129.93,129.93 0,71.76 -129.93,229.05 -129.93,229.05 0,0 -129.93,-157.29 -129.93,-229.05 0,-71.76 58.18,-129.93 129.93,-129.93zm10.44 64.28c31.33,5.77 52.05,35.84 46.28,67.16 -5.76,31.33 -35.84,52.05 -67.17,46.29 -31.33,-5.77 -52.05,-35.84 -46.28,-67.17 5.77,-31.33 35.84,-52.06 67.17,-46.28z"/>
    <path class="fil4" d="M1563.56 1306.45c38.07,0 68.96,9.67 68.96,21.58 0,11.91 -30.89,21.58 -68.96,21.58 -38.09,0 -68.96,-9.68 -68.96,-21.58 0,-11.93 30.89,-21.58 68.96,-21.58zm1.04 2.87c26.42,0 54.79,6.37 52.79,13.61 -2.02,7.27 -26.37,9.13 -52.79,9.13 -26.41,0 -48.68,-1.67 -51.55,-9 -2.88,-7.32 25.13,-13.76 51.55,-13.76l0 0.01z"/>
    <path class="fil5 str2" d="M1533.6 886.9c357.17,0 646.7,289.54 646.7,646.71 0,357.17 -289.54,646.7 -646.7,646.7 -357.17,0 -646.7,-289.54 -646.7,-646.7 0,-357.17 289.54,-646.71 646.7,-646.71z"/>
   </g>
  </g>
 </g>
</svg>
